<svg width="485" height="139" viewBox="0 0 485 139" fill="none" xmlns="http://www.w3.org/2000/svg">
<path d="M452.068 53.2322C470.829 61.4108 481.507 72.1642 484.501 76.5186L461.049 78.2225C443.086 55.504 390.362 43.7662 366.245 40.737C337.504 36.1934 298.717 34.3002 282.917 33.9215C246.592 33.4671 220.545 31.839 212.063 31.0817C249.985 26.0836 314.019 27.4846 341.296 28.8098C352.074 29.2642 369.072 31.6497 376.224 32.7856C406.961 35.9662 439.594 47.7419 452.068 53.2322Z" fill="#228BE6"/>
<path d="M241.003 0.979766C288.505 6.88656 321.337 19.3438 331.816 24.8341C294.293 16.2011 255.307 12.9069 240.504 12.339H190.108C183.322 12.339 174.307 13.0963 170.648 13.4749C153.484 14.838 134.889 19.3438 127.737 21.4264C116.959 22.3351 119.919 25.5914 122.747 27.106C132.726 31.1953 144.535 33.3535 149.192 33.9215C155.18 35.739 153.35 38.0865 151.687 39.0331H97.2994L174.141 78.7904H118.256C113.466 61.5244 99.6279 51.5283 93.3076 48.6885C81.7315 44.1448 66.8621 47.1739 60.8745 49.2565C45.3066 54.7089 36.0923 67.0526 33.4311 72.5429H14.9691C5.38889 75.2691 0.997942 75.572 0 75.3827L7.48457 68.5671C11.4763 68.1128 9.14781 63.0768 7.48457 60.6157C3.4928 53.8001 10.1458 50.2031 13.9712 49.2565C51.4938 38.806 81.4986 27.106 91.8107 22.5623C119.753 10.7487 158.008 4.00889 173.642 2.11569C202.782 -1.06489 230.691 0.0331637 241.003 0.979766Z" fill="#228BE6"/>
<path d="M61.8724 59.4798C56.284 60.8429 51.5604 64.2128 49.8971 65.7273C61.0741 47.5526 79.8354 48.3098 87.8189 50.9603C100.193 56.8671 108.277 67.8099 110.772 72.5429C111.969 81.2859 106.281 79.2149 103.287 77.0865C93.3076 63.9099 83.4945 59.8584 79.8354 59.4798C71.8519 57.6623 64.5336 58.7225 61.8724 59.4798Z" fill="#228BE6"/>
<path d="M170.648 59.4798C179.43 65.3866 194.266 70.6497 200.586 72.5429C195.796 75.2691 179.63 73.6788 172.145 72.5429C152.585 66.1817 140.377 52.4749 136.718 46.4166C151.488 42.7817 187.779 41.1157 204.079 40.737H269.943C305.071 42.1002 327.159 45.0914 333.812 46.4166C343.791 48.2341 349.945 52.4749 351.775 54.3681H173.143C161.567 53.4594 166.656 57.3972 170.648 59.4798Z" fill="#228BE6"/>
<path d="M369.738 58.5C364.149 59.8631 359.426 63.233 357.762 64.7476C368.939 46.5728 387.701 47.3301 395.684 49.9806C408.059 55.8874 416.142 66.8301 418.637 71.5631C419.834 80.3061 414.146 78.2351 411.152 76.1068C401.173 62.9301 391.36 58.8786 387.701 58.5C379.717 56.6825 372.399 57.7427 369.738 58.5Z" fill="#228BE6"/>
<path d="M5.55602 108.271C5.55602 105.331 6.18602 102.349 7.44602 99.3246C8.70602 96.2586 10.491 93.4236 12.801 90.8196C15.111 88.2156 18.114 86.0946 21.81 84.4566C25.548 82.7766 29.391 81.9366 33.339 81.9366C37.329 81.9366 40.437 82.6716 42.663 84.1416C44.931 85.6116 46.065 87.6486 46.065 90.2526C46.065 92.8566 45.204 94.8936 43.482 96.3636C41.802 97.7916 39.87 98.5056 37.686 98.5056C35.502 98.5056 33.528 98.0436 31.764 97.1196C30.042 96.1536 28.656 94.7886 27.606 93.0246C25.338 94.1166 23.385 96.2586 21.747 99.4506C20.109 102.643 19.29 105.856 19.29 109.09C19.29 112.282 19.815 114.823 20.865 116.713C21.915 118.561 23.406 119.485 25.338 119.485C27.27 119.485 28.971 118.498 30.441 116.524C31.953 114.55 32.709 112.177 32.709 109.405C36.951 109.405 39.975 109.741 41.781 110.413C43.629 111.085 44.553 112.534 44.553 114.76C44.553 118.246 42.663 121.522 38.883 124.588C35.103 127.654 30.357 129.187 24.645 129.187C18.933 129.187 14.313 127.423 10.785 123.895C7.29902 120.367 5.55602 115.159 5.55602 108.271ZM86.6759 91.1976L86.1719 106.192C86.1719 111.358 86.5919 115.705 87.4319 119.233C88.3139 122.761 89.9309 125.197 92.2829 126.541C89.3849 128.347 86.4449 129.25 83.4629 129.25C78.2129 129.25 74.9789 125.008 73.7609 116.524H60.9089C60.1109 119.254 59.7119 121.354 59.7119 122.824C59.7119 124.252 59.8799 125.407 60.2159 126.289C57.1079 128.263 54.3359 129.25 51.8999 129.25C48.1619 129.25 46.2929 126.982 46.2929 122.446C46.2929 120.178 46.9859 117.322 48.3719 113.878C49.7999 110.434 51.6689 106.486 53.9789 102.034C56.3309 97.5816 57.8219 94.6416 58.4519 93.2136C57.9899 90.9456 57.4649 88.7196 56.8769 86.5356C59.0609 85.0236 61.1609 83.8896 63.1769 83.1336C65.2349 82.3356 67.4399 81.9366 69.7919 81.9366C72.1859 81.9366 73.8449 82.4616 74.7689 83.5116C77.1629 82.4616 79.1369 81.9366 80.6909 81.9366C82.2449 81.9366 83.3999 82.1886 84.1559 82.6926C84.9119 83.1966 85.4579 83.9316 85.7939 84.8976C86.3819 86.5776 86.6759 88.6776 86.6759 91.1976ZM74.0129 92.6466H71.9969C68.2169 99.9546 65.4029 105.709 63.5549 109.909H73.3199C73.3199 105.331 73.5509 99.5766 74.0129 92.6466ZM119.468 118.855L117.263 112.492C115.079 112.492 112.874 112.156 110.648 111.484C110.186 114.172 109.955 116.104 109.955 117.28C109.955 121.354 110.585 124.399 111.845 126.415C109.325 128.305 106.7 129.25 103.97 129.25C101.24 129.25 99.2874 128.473 98.1114 126.919C96.9354 125.323 96.3474 122.971 96.3474 119.863C96.3474 116.713 97.6704 107.83 100.316 93.2136L96.9774 86.4726C101.681 83.4486 106.007 81.9366 109.955 81.9366C112.979 81.9366 115.31 82.5666 116.948 83.8266C120.098 82.5666 122.933 81.9366 125.453 81.9366C129.317 81.9366 132.383 83.2386 134.651 85.8426C136.919 88.4466 138.053 91.5756 138.053 95.2296C138.053 97.9596 137.36 100.606 135.974 103.168C134.588 105.688 132.551 107.746 129.863 109.342C131.291 113.416 132.887 116.923 134.651 119.863C136.457 122.803 138.242 124.756 140.006 125.722C139.124 126.646 137.759 127.444 135.911 128.116C134.105 128.83 132.467 129.187 130.997 129.187C128.141 129.187 125.852 128.473 124.13 127.045C122.408 125.575 120.854 122.845 119.468 118.855ZM113.42 104.617C116.78 104.617 119.384 103.756 121.232 102.034C123.122 100.312 124.067 98.4636 124.067 96.4896C124.067 94.5156 123.521 92.9406 122.429 91.7646C121.337 90.5886 119.783 90.0006 117.767 90.0006C116.675 90.0006 115.583 90.1476 114.491 90.4416C113.147 98.4636 112.307 103.168 111.971 104.554C112.265 104.596 112.748 104.617 113.42 104.617ZM164.853 81.9366C170.397 81.9366 174.555 82.5876 177.327 83.8896C180.099 85.1496 181.485 87.1866 181.485 90.0006C181.485 92.7726 180.624 94.8936 178.902 96.3636C177.222 97.7916 175.29 98.5056 173.106 98.5056C170.922 98.5056 168.948 97.9596 167.184 96.8676C165.462 95.7336 164.265 94.2426 163.593 92.3946C162.039 92.3946 160.548 92.9196 159.12 93.9696C157.734 94.9776 156.852 96.3006 156.474 97.9386C164.79 99.9546 170.754 102.307 174.366 104.995C177.978 107.683 179.784 111.127 179.784 115.327C179.784 119.527 177.873 122.887 174.051 125.407C170.271 127.927 165.147 129.187 158.679 129.187C152.253 129.187 147.696 128.305 145.008 126.541C142.32 124.777 140.976 122.446 140.976 119.548C140.976 116.65 141.879 113.983 143.685 111.547C144.567 113.437 146.247 115.138 148.725 116.65C151.245 118.162 153.723 118.918 156.159 118.918C160.653 118.918 163.509 117.49 164.727 114.634C157.755 113.71 152.442 111.778 148.788 108.838C145.134 105.856 143.307 102.265 143.307 98.0646C143.307 95.2506 144.063 92.7516 145.575 90.5676C147.087 88.3416 149.019 86.6406 151.371 85.4646C155.991 83.1126 160.485 81.9366 164.853 81.9366ZM231.777 115.516L228.564 108.901C233.058 105.919 237.111 104.428 240.723 104.428C243.747 104.428 245.259 106.129 245.259 109.531C245.259 110.497 244.671 113.458 243.495 118.414C242.361 123.328 241.794 127.087 241.794 129.691C241.794 132.295 242.361 134.227 243.495 135.487C241.143 137.209 238.686 138.07 236.124 138.07C233.562 138.07 231.735 137.23 230.643 135.55C229.593 133.87 229.068 131.413 229.068 128.179C226.8 128.851 224.448 129.187 222.012 129.187C216.3 129.187 211.68 127.423 208.152 123.895C204.666 120.367 202.923 115.159 202.923 108.271C202.923 105.331 203.553 102.349 204.813 99.3246C206.073 96.2586 207.858 93.4236 210.168 90.8196C212.478 88.2156 215.481 86.0946 219.177 84.4566C222.915 82.7766 226.758 81.9366 230.706 81.9366C234.696 81.9366 237.804 82.6716 240.03 84.1416C242.298 85.6116 243.432 87.6486 243.432 90.2526C243.432 92.8566 242.571 94.8936 240.849 96.3636C239.169 97.7916 237.237 98.5056 235.053 98.5056C232.869 98.5056 230.895 98.0436 229.131 97.1196C227.409 96.1536 226.023 94.7886 224.973 93.0246C222.705 94.1166 220.752 96.2586 219.114 99.4506C217.476 102.643 216.657 105.982 216.657 109.468C216.657 112.954 217.329 115.579 218.673 117.343C220.059 119.065 221.781 119.926 223.839 119.926C226.821 119.926 229.467 118.456 231.777 115.516ZM286.504 91.1976L286 106.192C286 111.358 286.42 115.705 287.26 119.233C288.142 122.761 289.759 125.197 292.111 126.541C289.213 128.347 286.273 129.25 283.291 129.25C278.041 129.25 274.807 125.008 273.589 116.524H260.737C259.939 119.254 259.54 121.354 259.54 122.824C259.54 124.252 259.708 125.407 260.044 126.289C256.936 128.263 254.164 129.25 251.728 129.25C247.99 129.25 246.121 126.982 246.121 122.446C246.121 120.178 246.814 117.322 248.2 113.878C249.628 110.434 251.497 106.486 253.807 102.034C256.159 97.5816 257.65 94.6416 258.28 93.2136C257.818 90.9456 257.293 88.7196 256.705 86.5356C258.889 85.0236 260.989 83.8896 263.005 83.1336C265.063 82.3356 267.268 81.9366 269.62 81.9366C272.014 81.9366 273.673 82.4616 274.597 83.5116C276.991 82.4616 278.965 81.9366 280.519 81.9366C282.073 81.9366 283.228 82.1886 283.984 82.6926C284.74 83.1966 285.286 83.9316 285.622 84.8976C286.21 86.5776 286.504 88.6776 286.504 91.1976ZM273.841 92.6466H271.825C268.045 99.9546 265.231 105.709 263.383 109.909H273.148C273.148 105.331 273.379 99.5766 273.841 92.6466ZM319.297 118.855L317.092 112.492C314.908 112.492 312.703 112.156 310.477 111.484C310.015 114.172 309.784 116.104 309.784 117.28C309.784 121.354 310.414 124.399 311.674 126.415C309.154 128.305 306.529 129.25 303.799 129.25C301.069 129.25 299.116 128.473 297.94 126.919C296.764 125.323 296.176 122.971 296.176 119.863C296.176 116.713 297.499 107.83 300.145 93.2136L296.806 86.4726C301.51 83.4486 305.836 81.9366 309.784 81.9366C312.808 81.9366 315.139 82.5666 316.777 83.8266C319.927 82.5666 322.762 81.9366 325.282 81.9366C329.146 81.9366 332.212 83.2386 334.48 85.8426C336.748 88.4466 337.882 91.5756 337.882 95.2296C337.882 97.9596 337.189 100.606 335.803 103.168C334.417 105.688 332.38 107.746 329.692 109.342C331.12 113.416 332.716 116.923 334.48 119.863C336.286 122.803 338.071 124.756 339.835 125.722C338.953 126.646 337.588 127.444 335.74 128.116C333.934 128.83 332.296 129.187 330.826 129.187C327.97 129.187 325.681 128.473 323.959 127.045C322.237 125.575 320.683 122.845 319.297 118.855ZM313.249 104.617C316.609 104.617 319.213 103.756 321.061 102.034C322.951 100.312 323.896 98.4636 323.896 96.4896C323.896 94.5156 323.35 92.9406 322.258 91.7646C321.166 90.5886 319.612 90.0006 317.596 90.0006C316.504 90.0006 315.412 90.1476 314.32 90.4416C312.976 98.4636 312.136 103.168 311.8 104.554C312.094 104.596 312.577 104.617 313.249 104.617ZM342.38 117.343C342.38 114.949 342.947 110.728 344.081 104.68C345.215 98.6316 345.908 94.8096 346.16 93.2136L342.821 86.4726C348.155 83.4486 352.691 81.9366 356.429 81.9366C358.277 81.9366 359.663 82.5666 360.587 83.8266C364.073 82.6086 367.286 81.9996 370.226 81.9996C375.686 81.9996 379.928 83.7846 382.952 87.3546C385.976 90.8826 387.488 95.2926 387.488 100.585C387.488 107.557 384.926 113.962 379.802 119.8C377.324 122.614 374.048 124.882 369.974 126.604C365.942 128.326 361.616 129.187 356.996 129.187C352.376 129.187 348.785 128.179 346.223 126.163C343.661 124.105 342.38 121.165 342.38 117.343ZM355.736 119.737C356.618 119.905 357.605 119.989 358.697 119.989C363.275 119.989 366.845 118.351 369.407 115.075C371.969 111.757 373.25 107.683 373.25 102.853C373.25 98.9466 372.368 95.8386 370.604 93.5286C368.84 91.2186 366.299 90.0636 362.981 90.0636C362.477 90.0636 361.637 90.1476 360.461 90.3156C360.167 92.4576 359.39 97.2456 358.13 104.68C356.912 112.072 356.114 117.091 355.736 119.737ZM398.536 129.25C396.058 129.25 394.231 128.473 393.055 126.919C391.879 125.323 391.291 122.971 391.291 119.863C391.291 116.713 392.614 107.83 395.26 93.2136L391.921 86.4726C396.667 83.4066 400.993 81.8736 404.899 81.8736C407.377 81.8736 408.91 83.0496 409.498 85.4016C414.244 85.2756 420.166 84.2046 427.264 82.1886C427.6 83.5746 427.768 84.9396 427.768 86.2836C427.768 89.6856 426.634 92.2476 424.366 93.9696C422.14 95.6916 419.263 96.5526 415.735 96.5526C413.341 96.5526 410.989 96.0486 408.679 95.0406C408.343 96.9306 407.755 100.018 406.915 104.302C408.469 104.596 409.792 104.743 410.884 104.743C412.606 104.407 414.496 103.924 416.554 103.294C416.764 104.008 416.869 105.184 416.869 106.822C416.869 108.418 416.218 109.699 414.916 110.665C413.614 111.631 412.144 112.114 410.506 112.114C408.91 112.114 407.272 111.925 405.592 111.547C405.13 114.193 404.899 116.692 404.899 119.044H415.105C418.297 118.582 421.51 117.763 424.744 116.587C424.996 117.343 425.122 118.372 425.122 119.674C425.122 122.152 424.387 124.357 422.917 126.289C421.489 128.221 419.494 129.187 416.932 129.187C415.588 129.187 413.614 128.914 411.01 128.368C408.448 127.864 406.537 127.549 405.277 127.423C403.261 128.641 401.014 129.25 398.536 129.25ZM462.931 117.721L464.443 116.713C461.713 111.463 460.348 105.709 460.348 99.4506C460.348 94.5786 461.545 90.4416 463.939 87.0396C466.375 83.6376 469.798 81.9366 474.208 81.9366C476.518 81.9366 478.471 82.3356 480.067 83.1336C479.647 85.4856 478.891 89.5806 477.799 95.4186C475.447 107.977 474.271 115.18 474.271 117.028C474.271 121.018 474.943 124 476.287 125.974C474.439 127.192 472.738 128.032 471.184 128.494C469.63 128.956 467.614 129.187 465.136 129.187C462.7 129.187 460.474 128.662 458.458 127.612C456.484 126.562 454.846 125.176 453.544 123.454C452.284 121.69 451.213 119.527 450.331 116.965C448.777 112.471 447.832 106.759 447.496 99.8286H446.488C444.556 108.565 443.59 114.676 443.59 118.162C443.59 121.648 444.22 124.399 445.48 126.415C442.96 128.305 440.335 129.25 437.605 129.25C434.875 129.25 432.922 128.473 431.746 126.919C430.57 125.323 429.982 122.971 429.982 119.863C429.982 116.713 431.305 107.83 433.951 93.2136L430.612 86.4726C435.316 83.4486 439.516 81.9366 443.212 81.9366C446.908 81.9366 449.701 82.5876 451.591 83.8896C453.481 85.1496 454.804 87.0186 455.56 89.4966C456.316 91.9746 456.862 94.5996 457.198 97.3716C457.576 100.102 458.206 103.399 459.088 107.263C460.012 111.127 461.293 114.613 462.931 117.721Z" fill="#228BE6"/>
</svg>
